<svg width="46" height="46" viewBox="0 0 46 46" fill="none" xmlns="http://www.w3.org/2000/svg">
<path fill-rule="evenodd" clip-rule="evenodd" d="M15.5223 11.5407C15.5576 12.0516 15.5984 12.5377 15.6129 12.621C15.6362 12.7548 16.6249 12.7191 24.0677 12.3155L32.4962 11.8584L20.8091 23.5716L9.12193 35.2849L9.89949 36.0625L10.6771 36.84L22.3903 25.1529L34.1036 13.4657L33.6465 21.8942C33.2428 29.3371 33.2071 30.3257 33.3409 30.3491C33.4243 30.3635 33.9103 30.4043 34.4212 30.4397C35.3234 30.5021 35.3505 30.4984 35.3705 30.3114C35.3819 30.2054 35.6325 25.6597 35.9275 20.2098L36.4638 10.3009L36.0624 9.89951L35.6611 9.49813L25.7522 10.0345C20.3022 10.3294 15.7565 10.5801 15.6506 10.5914C15.4635 10.6114 15.4598 10.6386 15.5223 11.5407Z" fill="#51266E"/>
</svg>
