<svg width="22" height="22" viewBox="0 0 22 22" fill="none" xmlns="http://www.w3.org/2000/svg">
<path d="M10.9108 5.48248C10.3669 5.48248 9.83522 5.64377 9.38298 5.94594C8.93074 6.24811 8.57827 6.67761 8.37013 7.1801C8.16199 7.6826 8.10753 8.23553 8.21364 8.76898C8.31975 9.30242 8.58166 9.79243 8.96625 10.177C9.35085 10.5616 9.84085 10.8235 10.3743 10.9296C10.9077 11.0357 11.4607 10.9813 11.9632 10.7731C12.4657 10.565 12.8952 10.2125 13.1973 9.76029C13.4995 9.30806 13.6608 8.77638 13.6608 8.23248C13.66 7.50339 13.37 6.8044 12.8544 6.28885C12.3389 5.77331 11.6399 5.48331 10.9108 5.48248ZM10.9108 9.60748C10.6388 9.60748 10.373 9.52683 10.1469 9.37575C9.92077 9.22466 9.74453 9.00992 9.64046 8.75867C9.53639 8.50742 9.50916 8.23095 9.56222 7.96423C9.61527 7.69751 9.74623 7.45251 9.93853 7.26021C10.1308 7.06791 10.3758 6.93696 10.6425 6.8839C10.9093 6.83085 11.1857 6.85808 11.437 6.96215C11.6882 7.06622 11.903 7.24245 12.0541 7.46857C12.2052 7.69469 12.2858 7.96053 12.2858 8.23248C12.2854 8.59702 12.1404 8.94651 11.8826 9.20428C11.6248 9.46206 11.2753 9.60706 10.9108 9.60748Z" fill="#6E5E83"/>
<path d="M16.1952 2.94399C14.8886 1.63776 13.1445 0.861801 11.2995 0.765884C9.45444 0.669966 7.63928 1.26089 6.20431 2.42459C4.76935 3.5883 3.8163 5.2423 3.52912 7.06737C3.24194 8.89243 3.64098 10.7592 4.64922 12.3073L9.84444 20.2829C9.96005 20.4604 10.1181 20.6062 10.3043 20.7071C10.4906 20.808 10.699 20.8609 10.9108 20.8609C11.1226 20.8609 11.3311 20.808 11.5173 20.7071C11.7035 20.6062 11.8616 20.4604 11.9772 20.2829L17.1726 12.3073C18.1081 10.8712 18.5216 9.15713 18.3436 7.45241C18.1657 5.7477 17.4071 4.15596 16.1952 2.94399V2.94399ZM16.0205 11.5568L10.9108 19.4008L5.80113 11.5568C4.23706 9.15576 4.57252 5.94256 6.59875 3.91624C7.16502 3.34996 7.83728 2.90076 8.57715 2.59429C9.31702 2.28782 10.11 2.13008 10.9108 2.13008C11.7117 2.13008 12.5047 2.28782 13.2445 2.59429C13.9844 2.90076 14.6567 3.34996 15.2229 3.91624C17.2492 5.94256 17.5846 9.15576 16.0205 11.5568Z" fill="#6E5E83"/>
</svg>
