<svg width="196" height="41" viewBox="0 0 196 41" fill="none" xmlns="http://www.w3.org/2000/svg">
<path d="M65.1449 14.5469V12.0909H79.7791V14.5469H73.8793V31H71.0355V14.5469H65.1449ZM98.6259 21.5455C98.6259 23.5644 98.2566 25.3002 97.5179 26.7528C96.7793 28.1993 95.7668 29.3134 94.4803 30.0952C93.2 30.8707 91.7443 31.2585 90.1131 31.2585C88.4758 31.2585 87.0139 30.8707 85.7275 30.0952C84.4471 29.3134 83.4377 28.1963 82.699 26.7436C81.9604 25.291 81.5911 23.5582 81.5911 21.5455C81.5911 19.5265 81.9604 17.7938 82.699 16.3473C83.4377 14.8946 84.4471 13.7805 85.7275 13.005C87.0139 12.2232 88.4758 11.8324 90.1131 11.8324C91.7443 11.8324 93.2 12.2232 94.4803 13.005C95.7668 13.7805 96.7793 14.8946 97.5179 16.3473C98.2566 17.7938 98.6259 19.5265 98.6259 21.5455ZM95.8006 21.5455C95.8006 20.0066 95.5513 18.7109 95.0527 17.6584C94.5603 16.5997 93.8832 15.7995 93.0215 15.2578C92.1659 14.71 91.1964 14.4361 90.1131 14.4361C89.0236 14.4361 88.0511 14.71 87.1955 15.2578C86.3399 15.7995 85.6628 16.5997 85.1642 17.6584C84.6718 18.7109 84.4256 20.0066 84.4256 21.5455C84.4256 23.0843 84.6718 24.383 85.1642 25.4418C85.6628 26.4943 86.3399 27.2945 87.1955 27.8423C88.0511 28.384 89.0236 28.6548 90.1131 28.6548C91.1964 28.6548 92.1659 28.384 93.0215 27.8423C93.8832 27.2945 94.5603 26.4943 95.0527 25.4418C95.5513 24.383 95.8006 23.0843 95.8006 21.5455ZM102.183 31V12.0909H108.923C110.394 12.0909 111.613 12.3587 112.579 12.8942C113.546 13.4297 114.269 14.1622 114.749 15.0916C115.229 16.0149 115.469 17.0552 115.469 18.2124C115.469 19.3757 115.226 20.4221 114.74 21.3516C114.26 22.2749 113.533 23.0073 112.561 23.549C111.594 24.0845 110.379 24.3523 108.914 24.3523H104.279V21.9332H108.655C109.585 21.9332 110.339 21.7732 110.917 21.4531C111.496 21.1269 111.921 20.6837 112.191 20.1236C112.462 19.5634 112.598 18.9264 112.598 18.2124C112.598 17.4983 112.462 16.8643 112.191 16.3104C111.921 15.7564 111.493 15.3224 110.908 15.0085C110.329 14.6946 109.566 14.5376 108.618 14.5376H105.036V31H102.183ZM125.695 31V12.0909H128.548V28.544H137.116V31H125.695ZM142.933 31H139.904L146.709 12.0909H150.005L156.81 31H153.781L148.435 15.5256H148.288L142.933 31ZM143.44 23.5952H153.264V25.9957H143.44V23.5952ZM174.802 12.0909V31H172.18L162.569 17.1321H162.393V31H159.54V12.0909H162.181L171.802 25.9773H171.977V12.0909H174.802ZM185.086 31H178.964V12.0909H185.279C187.132 12.0909 188.723 12.4695 190.053 13.2266C191.382 13.9775 192.401 15.0578 193.109 16.4673C193.823 17.8707 194.18 19.5542 194.18 21.5178C194.18 23.4875 193.82 25.1802 193.1 26.5959C192.386 28.0116 191.352 29.1011 189.998 29.8643C188.643 30.6214 187.006 31 185.086 31ZM181.817 28.5071H184.929C186.369 28.5071 187.566 28.2363 188.52 27.6946C189.474 27.1468 190.188 26.3558 190.662 25.3217C191.136 24.2815 191.373 23.0135 191.373 21.5178C191.373 20.0343 191.136 18.7756 190.662 17.7415C190.194 16.7074 189.496 15.9226 188.566 15.3871C187.637 14.8516 186.483 14.5838 185.104 14.5838H181.817V28.5071Z" fill="#F7F2FF"/>
<path fill-rule="evenodd" clip-rule="evenodd" d="M24.9775 0.0306563C19.9042 0.592589 15.5298 2.7643 12.1488 6.39953C8.08673 10.7672 6.08357 16.8448 6.76427 22.7365C6.81775 23.1999 6.83103 23.2167 7.14344 23.2167C7.35413 23.2167 7.5979 23.3226 7.84118 23.5199C8.04681 23.6867 8.23423 23.8232 8.2575 23.8232C8.46036 23.8232 8.90809 23.3031 10.5028 21.2145C12.6404 18.4148 12.8312 18.2633 13.4533 18.87C13.6243 19.0368 13.8 19.1733 13.8434 19.1733C14.0471 19.1733 17.0638 16.3946 18.2101 15.1512C18.5741 14.7564 19.215 14.0215 19.6346 13.5181C20.2589 12.7691 20.4479 12.6027 20.6744 12.6027C20.9019 12.6027 21.2017 12.8707 22.3622 14.1117C23.1383 14.9417 23.8654 15.6454 23.978 15.6754C24.0907 15.7054 24.3465 15.68 24.5466 15.6188C24.8575 15.5238 24.974 15.5389 25.3467 15.723C25.9891 16.0404 27.7669 17.53 29.2355 18.9814C29.9444 19.682 30.6219 20.3075 30.7408 20.3713C30.8599 20.4351 31.1857 20.4874 31.4649 20.4874H31.9727L33.5268 21.9919C35.8432 24.2344 40.3759 29.0011 41.0761 29.9308C41.1565 30.0377 40.732 29.74 40.1327 29.2692C39.5334 28.7986 38.1516 27.7118 37.062 26.8541C33.7513 24.2482 33.0505 23.7221 32.89 23.7221C32.8053 23.7221 32.5421 23.8642 32.3051 24.038C31.9151 24.3237 31.8191 24.3497 31.2969 24.3112C30.9794 24.2878 30.5198 24.1686 30.2755 24.0465C30.031 23.9243 28.8951 23.0894 27.751 22.1912C24.6985 19.7949 24.4931 19.682 23.5575 19.8867C23.1999 19.965 23.0019 19.965 22.8583 19.8866C22.7482 19.8264 22.1102 19.068 21.4405 18.2012C20.5442 17.0412 20.215 16.6783 20.1927 16.8266C20.1761 16.9372 20.299 18.8142 20.4659 20.9975C20.6327 23.1809 20.7518 24.9851 20.7303 25.007C20.7089 25.0289 20.442 24.5296 20.1374 23.8974C19.5972 22.7765 17.7922 19.861 17.475 19.5969C17.3369 19.482 17.2819 19.5239 17.056 19.9173C16.7722 20.4116 15.5573 23.3299 15.1981 24.3801C15.0747 24.7409 14.9489 25.0362 14.9186 25.0362C14.8883 25.0362 14.7557 24.4027 14.6241 23.6284L14.3848 22.2206L14.0986 22.3901C13.7109 22.6197 13.0637 23.3714 12.657 24.0644C12.3129 24.6508 11.4646 27.0355 11.4595 27.431C11.4579 27.5528 11.4159 27.6782 11.3661 27.7096C11.2334 27.7933 10.4735 26.5836 10.3408 26.0774C10.2782 25.8383 10.1708 25.6427 10.1023 25.6427C9.89862 25.6427 9.31718 26.2189 8.9803 26.7545C8.80755 27.0294 8.50999 27.3528 8.31911 27.4732C7.99729 27.6761 7.89318 27.6869 6.88521 27.6218L5.7983 27.5517L5.14068 27.9206C4.48702 28.2872 3.19902 29.2403 1.30234 30.7609C0.756854 31.1983 0.177389 31.657 0.0146436 31.78C-0.148102 31.9031 1.06461 31.3917 2.7095 30.6435L5.70023 29.283L7.11739 29.2187L8.53456 29.1543L8.91621 29.951C10.3617 32.9677 13.22 36.1065 16.2333 37.9859C21.0946 41.018 26.9499 41.8017 32.4672 40.1586C37.274 38.7273 41.5305 35.3212 44.0692 30.8747L44.6892 29.7888L45.8778 29.8133C46.7165 29.8306 47.3785 29.7799 48.1261 29.6412L49.1856 29.4448L50.0576 29.8106C50.5372 30.0119 51.8879 30.5869 53.0592 31.0885C54.2305 31.5899 55.0997 31.9361 54.9908 31.8576C54.8818 31.7791 54.0126 31.0941 53.0592 30.3354C51.1985 28.8547 50.1919 28.1281 49.5123 27.7749C49.1208 27.5715 48.9972 27.5589 48.0147 27.6224C46.7282 27.7054 46.532 27.6227 45.9259 26.7409C45.5284 26.1625 45.0064 25.6427 44.8231 25.6427C44.7689 25.6427 44.6609 25.7077 44.5829 25.7873C44.2646 26.112 43.4153 25.6235 42.5355 24.6095C42.1946 24.2167 40.935 23.0059 39.7365 21.9188C36.4435 18.9322 34.9398 17.3354 34.8194 16.6972C34.7933 16.5591 34.4322 16.9583 33.5098 18.1448L32.2361 19.7832L31.2782 18.8448C30.7512 18.3288 29.9266 17.5683 29.4456 17.1549L28.571 16.4033L28.8012 16.2132C28.9277 16.1086 29.2283 15.9052 29.469 15.7611C29.8668 15.5233 29.9446 15.5097 30.3226 15.6129C30.5513 15.6753 30.8276 15.7026 30.9365 15.6736C31.0453 15.6445 31.7694 14.9417 32.5455 14.1117C34.3072 12.2277 34.2363 12.2442 35.2416 13.4872C36.5717 15.1319 40.7177 19.1733 41.0748 19.1733C41.1279 19.1733 41.2904 19.0368 41.4361 18.87C41.7562 18.5033 42.1092 18.4777 42.4738 18.7947C42.6175 18.9195 43.2415 19.6854 43.8606 20.4967C44.4798 21.308 45.2868 22.3655 45.654 22.8469C46.0211 23.3283 46.3856 23.7221 46.464 23.7221C46.6872 23.7221 46.7695 22.8055 46.7679 20.3357C46.7664 18.0841 46.707 17.4943 46.3049 15.7425C45.4698 12.1043 43.6248 8.74167 40.9749 6.02854C37.9124 2.89308 34.2296 0.964784 29.8793 0.218877C28.9681 0.0627002 25.7902 -0.0594106 24.9775 0.0306563Z" fill="#F7F2FF"/>
</svg>
