<svg width="117" height="191" viewBox="0 0 117 191" fill="none" xmlns="http://www.w3.org/2000/svg">
<path d="M27.2528 0.663772C27.3579 -0.221257 28.6421 -0.221257 28.7472 0.663772L29.6282 8.08837C30.7657 17.6755 38.3245 25.2343 47.9116 26.3718L55.3361 27.2528C56.2213 27.3579 56.2213 28.6421 55.3361 28.7472L47.9116 29.6282C38.3245 30.7657 30.7657 38.3245 29.6282 47.9116L28.7472 55.3361C28.6421 56.2213 27.3579 56.2213 27.2528 55.3361L26.3718 47.9116C25.2343 38.3245 17.6755 30.7657 8.08837 29.6282L0.663772 28.7472C-0.221257 28.6421 -0.221257 27.3579 0.663772 27.2528L8.08837 26.3718C17.6755 25.2343 25.2343 17.6755 26.3718 8.08837L27.2528 0.663772Z" fill="#F7F2FF"/>
<path d="M103.153 87.2475L103.5 84.326L103.847 87.2475C104.463 92.4418 108.558 96.537 113.752 97.1534L116.674 97.5L113.752 97.8466C108.558 98.463 104.463 102.558 103.847 107.752L103.5 110.674L103.153 107.752C102.537 102.558 98.4418 98.463 93.2475 97.8466L90.326 97.5L93.2475 97.1534C98.4418 96.537 102.537 92.4418 103.153 87.2475Z" stroke="#F7F2FF"/>
<path d="M38.1931 168.273C38.2363 167.909 38.7637 167.909 38.8069 168.273L39.1687 171.322C39.6359 175.26 42.7404 178.364 46.678 178.831L49.7273 179.193C50.0909 179.236 50.0909 179.764 49.7273 179.807L46.678 180.169C42.7404 180.636 39.6359 183.74 39.1687 187.678L38.8069 190.727C38.7637 191.091 38.2363 191.091 38.1931 190.727L37.8313 187.678C37.3641 183.74 34.2596 180.636 30.322 180.169L27.2726 179.807C26.9091 179.764 26.9091 179.236 27.2726 179.193L30.322 178.831C34.2596 178.364 37.3641 175.26 37.8313 171.322L38.1931 168.273Z" fill="#F7F2FF"/>
</svg>
